<svg id="Camada_1" data-name="Camada 1" xmlns="http://www.w3.org/2000/svg" viewBox="0 0 410.78 317.51"><defs><style>.cls-1,.cls-3,.cls-4{fill:#1c391d;}.cls-2{fill:none;stroke:#1c391d;stroke-miterlimit:10;stroke-width:5px;}.cls-3{font-size:66px;}.cls-3,.cls-4{font-family:Carlito-Bold, Carlito;font-weight:700;}.cls-4{font-size:30px;}.cls-5{letter-spacing:-0.01em;}.cls-6{letter-spacing:-0.01em;}.cls-7{letter-spacing:-0.01em;}.cls-8{letter-spacing:-0.01em;}.cls-9{letter-spacing:-0.09em;}.cls-10{letter-spacing:0em;}</style></defs><path class="cls-1" d="M705,167.91V301.15c-.85,3.73-3.38,5.45-7,5.89a27.77,27.77,0,0,1-3.29.15c-17.73,0-35.46.06-53.2-.05a15.05,15.05,0,0,0-8.75,2.68c-4.08,2.69-7.87,5.8-12.18,8.17a18.55,18.55,0,0,1-19,0,95.15,95.15,0,0,1-9.46-6.28q-1.8-1.27-3.65-2.47a12.85,12.85,0,0,0-7.27-2.08c-17.91.06-35.83,0-53.74,0a28,28,0,0,1-3.3-.15c-3.65-.42-6.12-2.22-7-5.89V167.54c1.11-2.54,2.59-4.76,5.51-5.34a20.27,20.27,0,0,1,4.2-.2c1.51,0,3.47-.67,4.42.27s.27,2.9.27,4.41q0,50.37,0,100.74c0,2.14.08,4.28.21,6.42.46,6.89,4.21,10.54,11.15,10.81,11,.42,22,.07,33,.2a101.93,101.93,0,0,1,10.62.43c5.16.6,9.29,2.79,12.19,7.16a14.3,14.3,0,0,0,9.21,6.46,13.92,13.92,0,0,0,14.72-5.54c2.23-2.89,4.47-5.66,8.06-6.94a25.79,25.79,0,0,1,7.71-1.41c12-.37,24.1-.08,36.16-.19a34.51,34.51,0,0,0,6.57-.44c5.93-1.17,8.72-4.27,9.2-10.35.16-2,.23-4,.23-6q0-51.93,0-103.86c0-1.76.37-2.42,2.17-2.18a26.91,26.91,0,0,0,3.48,0C701.32,162,703.15,163.21,705,167.91Z" transform="translate(-405.72 -148.27)"/><path class="cls-1" d="M676.29,276.9c0,1.29-.45,1.49-1.56,1.44-10.08-.39-20.17-.86-30.25-1-6.75-.13-13.42.67-19.66,3.56a35.24,35.24,0,0,0-6.32,3.91v-2.27q0-59.52,0-119.06a3.88,3.88,0,0,1,1.58-3.39c7-5.84,15.25-8.8,24.15-10.2,10.12-1.58,20.34-1.5,30.55-1.57,1.17,0,1.54.26,1.54,1.5Q676.25,213.34,676.29,276.9Z" transform="translate(-405.72 -148.27)"/><path class="cls-1" d="M603.76,163.59q0,60.54,0,121.09c0,.23,0,.47-.08,1-8-6.31-17.23-7.59-26.71-7.42-9.72.18-19.43.64-29.14,1.07-1.59.07-1.86-.42-1.86-1.9q.06-63.1,0-126.22c0-1.63.4-2,2-2,10,.1,20.06,0,30,1.57,9.16,1.42,17.59,4.49,24.72,10.63A2.58,2.58,0,0,1,603.76,163.59Z" transform="translate(-405.72 -148.27)"/><rect class="cls-2" x="2.5" y="195.73" width="70" height="70" rx="11"/><rect class="cls-2" x="86.28" y="195.73" width="70" height="70" rx="11"/><rect class="cls-2" x="170.28" y="195.73" width="70" height="70" rx="11"/><rect class="cls-2" x="254.28" y="195.73" width="70" height="70" rx="11"/><rect class="cls-2" x="338.28" y="195.73" width="70" height="70" rx="11"/><text class="cls-3" transform="translate(16.8 252.29)">D</text><text class="cls-3" transform="translate(101.8 251.29)">A</text><text class="cls-3" transform="translate(184.8 252.29)">B</text><text class="cls-3" transform="translate(269.8 251.29)">A</text><text class="cls-3" transform="translate(353.8 252.29)">R</text><text class="cls-4" transform="translate(9.06 309.33)">Ce<tspan class="cls-5" x="30.98" y="0">n</tspan><tspan x="46.8" y="0">t</tspan><tspan class="cls-6" x="57.2" y="0">r</tspan><tspan x="67.5" y="0">o </tspan><tspan class="cls-7" x="90.41" y="0">E</tspan><tspan x="104.6" y="0">du</tspan><tspan class="cls-8" x="136.8" y="0">c</tspan><tspan x="149.18" y="0">acional de </tspan><tspan class="cls-9" x="283.08" y="0">T</tspan><tspan class="cls-10" x="295.34" y="0">eología</tspan></text></svg>